
<svg width="133" height="32" viewBox="0 0 133 32" fill="none" xmlns="http://www.w3.org/2000/svg">
<path d="M5.70337 18.9298C5.9901 24.2864 9.25727 28.7549 14.4418 30.8252C16.393 31.6045 18.45 32 20.5556 32C24.4786 32 28.2001 30.6237 31.0306 28.127C31.2644 27.9212 31.3967 27.6315 31.4026 27.3154C31.4085 26.9934 31.2791 26.6817 31.0453 26.4611L28.5221 24.0644C28.1016 23.6659 27.462 23.6497 26.9988 24.0291C24.183 26.3317 20.0895 26.9096 16.5665 25.5024C15.5681 25.1039 13.5361 24.01 12.4274 22.0897C14.2948 22.4999 16.4239 22.6381 18.453 22.4823C23.3067 22.1088 27.0326 19.8665 28.675 16.3302C30.0528 13.363 29.7337 9.88998 27.8428 7.26389C25.8549 4.50252 22.5568 3.16154 18.7941 3.58501C13.8581 4.14228 9.28373 7.30359 7.10758 11.975C7.01054 11.8132 6.84585 11.5265 6.76056 11.3618C5.46516 8.85777 5.399 5.99936 6.58853 3.90408C6.8532 3.43797 6.73851 2.84541 6.31505 2.49399L3.62279 0.259018C3.41694 0.0884542 3.10669 -0.0247618 2.81703 0.00464569C2.42885 0.0443458 2.10977 0.251668 1.92744 0.53251C-0.545728 4.36431 -0.645707 9.52385 1.66719 13.9953C2.66411 15.9215 4.04038 17.5962 5.70043 18.9298M17.3487 16.7919C15.4696 16.8743 13.3611 16.6214 11.7231 15.892C12.7685 11.9764 16.4489 9.61943 19.4352 9.28124C21.1041 9.09156 22.4348 9.56649 23.1891 10.6134C23.8713 11.5603 23.9625 12.8175 23.4743 13.9144C22.6112 15.8509 20.2321 16.6669 17.3487 16.7919Z" fill="#153CB7"/>
<path d="M78.2778 27.6756C79.0453 29.9577 82.0126 31.4457 84.9915 31.2633L85.5444 31.2001C86.1678 31.1281 86.6369 30.6002 86.6369 29.9738V27.1742C86.6369 26.5758 86.2031 26.0641 85.6047 25.9597C84.8386 25.8244 84.4343 25.3716 84.4343 24.6496V5.63177C84.4343 4.95098 83.8799 4.39665 83.1991 4.39665H79.6203C78.9953 4.39665 78.469 4.86423 78.394 5.48473L78.2087 7.03745C77.0177 5.28182 74.6063 3.76733 71.0509 3.76733C62.2889 3.76733 58.2969 10.9501 58.2969 17.6227C58.2969 24.2952 62.6771 31.5824 71.0509 31.5824C73.9211 31.5824 76.9236 30.0488 78.2763 27.6771M71.5758 25.3216C65.7634 25.3216 65.1356 19.937 65.1356 17.6227C65.1356 14.5496 66.8515 9.97526 71.5758 9.97526C75.9531 9.97526 77.9117 13.2101 77.9117 16.4155V18.4079C77.9117 22.6072 75.4253 25.3201 71.5758 25.3201" fill="#153CB7"/>
<path d="M96.1162 7.57556L95.9457 5.52879C95.8927 4.89359 95.3531 4.39661 94.715 4.39661H91.114C90.4332 4.39661 89.8789 4.95094 89.8789 5.63172V29.7179C89.8789 30.3987 90.4332 30.953 91.114 30.953H95.3252C96.006 30.953 96.5603 30.3987 96.5603 29.7179V16.2596C96.5603 14.3187 97.044 12.8748 97.9968 11.969C99.0217 10.9942 100.613 10.5751 102.862 10.6883C103.211 10.7045 103.534 10.5825 103.781 10.3487C104.027 10.1149 104.164 9.79877 104.164 9.45911V5.10827C104.164 4.44807 103.627 3.89227 102.968 3.87168C99.6525 3.76435 97.3234 4.92153 96.1162 7.57703" fill="#153CB7"/>
<path d="M118.69 3.60999C110.941 3.60999 105.098 9.63411 105.098 17.6227C105.098 25.6112 110.963 31.6353 118.743 31.6353C126.522 31.6353 132.335 25.6112 132.335 17.6227C132.335 9.63411 126.47 3.60999 118.69 3.60999ZM118.741 25.4789C114.039 25.4789 111.935 21.5868 111.935 17.7271C111.935 12.2205 115.464 9.71351 118.741 9.71351C123.176 9.71351 125.496 13.7453 125.496 17.7271C125.496 21.7088 123.407 25.4789 118.741 25.4789Z" fill="#153CB7"/>
<path d="M44.4866 24.8451C43.3883 23.0101 38.2964 5.96697 38.0832 5.24795C37.9185 4.73921 37.4465 4.39661 36.9098 4.39661H32.5075C32.1076 4.39661 31.7311 4.5907 31.5003 4.91712C31.2694 5.24207 31.2106 5.6626 31.343 6.03901C31.3959 6.20516 36.551 22.491 38.9036 27.6285C40.0873 30.2149 42.0179 31.5824 44.4866 31.5824C46.9554 31.5824 48.8875 30.2149 50.0697 27.6285C52.4208 22.491 57.5774 6.20517 57.6289 6.04196C57.7612 5.6626 57.7024 5.24354 57.4715 4.91712C57.2407 4.5907 56.8628 4.39661 56.4643 4.39661H52.062C51.5253 4.39661 51.0533 4.7392 50.8872 5.24942C50.674 5.96696 45.5821 23.0101 44.4837 24.8451" fill="#153CB7"/>
</svg>
